<svg width="64" height="16" viewBox="0 0 64 16" fill="none" xmlns="http://www.w3.org/2000/svg">
<path d="M7.22083 0L0 15.9794H8.64434L9.71599 13.4317H12.1655L13.2372 15.9794H22.7522V14.0349L23.6 15.9794H28.5219L29.3698 13.9938V15.9794H49.1584L51.5646 13.4978L53.8176 15.9794L63.9815 16L56.7378 8.03433L63.9815 0H53.9753L51.633 2.43576L49.4508 0H27.9234L26.0749 4.12443L24.183 0H15.5567V1.87839L14.597 0C14.597 0 7.22083 0 7.22083 0ZM8.89346 2.2691H13.1071L17.8967 13.1049V2.2691H22.5126L26.212 10.0383L29.6214 2.2691H34.2142V13.7354H31.4196L31.3968 4.75048L27.3225 13.7354H24.8225L20.7254 4.75048V13.7354H14.9762L13.8863 11.1648H7.99774L6.91006 13.7332H3.8297C3.8297 13.7332 8.89346 2.2691 8.89346 2.2691ZM36.771 2.2691H48.1346L51.6102 6.02337L55.1978 2.2691H58.6734L53.3926 8.03208L58.6734 13.7286H55.0401L51.5646 9.93077L47.9586 13.7286H36.771V2.2691ZM10.9433 4.20914L9.00323 8.78845H12.8811L10.9433 4.20914ZM39.5772 4.64321V6.73638H45.7765V9.06939H39.5772V11.3545H46.5306L49.7616 7.98872L46.6677 4.64121H39.5772V4.64321Z" fill="#FCFCFC"/>
</svg>
