<svg width="31" height="20" viewBox="0 0 31 20" fill="none" xmlns="http://www.w3.org/2000/svg">
<path d="M21.0434 19.9999C26.5111 20.0267 30.9947 15.5427 30.9564 10.0868C30.9942 4.48186 26.5111 -0.00175914 21.0434 5.17776e-07H10.0873C4.554 -0.00131923 0.0703865 4.48186 0 10.0868C0.0703865 15.5427 4.554 20.0263 10.0868 19.9999H21.0434V19.9999Z" fill="#9E9E9E"/>
<path d="M0.696289 10.0869C0.750839 4.85758 4.9296 0.678382 10.0876 0.695978C15.2399 0.678382 19.4191 4.85758 19.4785 10.0873C19.4191 15.1679 15.2399 19.3471 10.0876 19.3044C4.9296 19.3471 0.750839 15.1674 0.696289 10.0869V10.0869Z" fill="white"/>
<path d="M8.00026 4.52197C5.83896 5.49727 4.21743 7.58246 4.17432 10.0869C4.21743 12.4972 5.76153 14.6202 8.00026 15.4781V4.52197ZM12.1742 15.4785C14.4076 14.6207 15.9513 12.4972 16.0001 10.0873C15.9513 7.52879 14.4072 5.40532 12.1742 4.52241V15.4785Z" fill="#9E9E9E"/>
</svg>
