<svg width="91" height="16" viewBox="0 0 91 16" fill="none" xmlns="http://www.w3.org/2000/svg">
<g style="mix-blend-mode:luminosity">
<g style="mix-blend-mode:luminosity">
<path fill-rule="evenodd" clip-rule="evenodd" d="M0 0.246178H4.13081C4.90112 0.246178 5.67091 0.316366 6.37064 0.421652C10.0109 0.947577 12.8814 2.87631 12.8814 7.99517C12.8814 13.0794 10.0109 15.0423 6.37064 15.5331C5.67091 15.6384 4.90061 15.673 4.13081 15.673H0V0.246178ZM83.939 6.80243C85.0942 6.66205 86.0387 6.17122 86.0387 4.69873C86.0387 3.29644 85.0947 2.91039 83.939 2.73542H81.8383V6.87313H82.8183C83.2037 6.87313 83.5886 6.83753 83.939 6.80243ZM83.939 0.281274C86.6693 0.38656 89.1895 0.947578 89.1895 4.45357C89.1895 6.27701 88.0342 7.78459 86.1092 8.02975C86.9146 8.13504 87.4046 8.94173 87.6844 9.64313L90.1004 15.673H86.7394L84.9195 10.8349C84.6397 10.1335 84.395 9.71231 83.9395 9.46715C83.6947 9.32727 83.3098 9.25657 82.8188 9.25657H81.8388V15.673H78.8287V0.246178H82.0835C82.6782 0.246178 83.3439 0.246178 83.939 0.281274ZM55.9008 4.87421C56.2506 5.78568 56.4253 6.80294 56.4253 7.96008C56.4253 9.04702 56.2506 10.0989 55.9008 11.0454C54.8156 14.0245 52.1904 15.9537 48.5856 15.9537C43.7551 15.9537 40.6744 12.6578 40.6744 7.95956C40.6744 3.22574 43.8247 0.000508352 48.5856 0.000508352C52.1904 0.000508352 54.8156 1.89414 55.9008 4.87421ZM55.9008 1.61338L61.2218 15.673H62.3415L68.2571 0.246178H65.1063L61.9566 8.3802L58.5966 0.246178H55.3762L55.9008 1.61338ZM69.0274 0.246178H77.9878V2.73542H72.0721V6.52217H77.4622V8.90562H72.0726V13.2539H78.0233V15.673H69.0279L69.0274 0.246178ZM6.37064 2.98109C5.84559 2.80561 5.28551 2.73542 4.72593 2.73542H3.01064V13.2539H4.72593C5.28601 13.2539 5.8461 13.1486 6.37064 12.9736C8.22608 12.3068 9.73114 10.5892 9.73114 7.99466C9.73165 5.40013 8.22608 3.61179 6.37064 2.98109ZM14.0717 0.246178H17.1168V15.673H14.0717V0.246178ZM26.883 4.34828C25.8329 3.68198 24.7133 3.01567 23.523 2.8758C22.4379 2.73542 21.2827 3.05077 21.2827 4.59345C21.2827 7.25816 27.9336 6.13612 27.9336 11.2906C27.9336 14.6562 25.2733 16.3042 22.2282 15.9537C20.583 15.7777 19.638 15.2869 18.3426 14.411V11.255C19.3582 11.8165 20.8627 12.9029 22.053 13.1135C23.3483 13.3241 24.7483 12.9375 24.7483 11.5358C24.7483 8.55568 18.1329 9.7825 18.1329 4.69822C18.1329 1.26242 20.7231 0 23.3834 0C24.7138 0 25.8685 0.490827 26.8835 1.40229L26.883 4.34828ZM39.9041 14.1303C39.1338 15.113 37.3139 15.673 36.0886 15.7782C31.3632 16.0941 28.2129 13.4645 28.2129 8.24033C28.2129 2.98108 30.9783 -0.104269 36.0886 0.176495C37.1037 0.211591 38.7489 0.562035 39.834 1.4735V4.41898C38.5387 3.6128 37.2088 3.05179 36.0886 3.01669C32.9734 2.9114 31.3632 4.87472 31.3632 8.03026C31.3632 11.1863 32.8683 12.9386 36.0886 12.7987C37.3484 12.7641 39.2389 11.7468 39.9041 11.1863V14.1303Z" fill="#FCFCFC"/>
</g>
</g>
</svg>
