<svg width="61" height="17" viewBox="0 0 61 17" fill="none" xmlns="http://www.w3.org/2000/svg">
<path d="M28.684 0.357115C25.3027 0.700801 22.8807 1.63639 21.3135 3.21162C20.5537 3.98491 19.8508 5.31193 19.6134 6.42891C19.4329 7.30722 19.4234 9.11157 19.6039 9.99943C20.1548 12.8444 22.4438 14.8779 26.0245 15.7084C26.3664 15.7848 26.8603 15.8994 27.1168 15.9662C28.0286 16.1762 31.0395 16.2812 33.0815 16.1667C34.1358 16.1094 35.1711 16.0235 35.38 15.9757C35.589 15.928 36.0639 15.8325 36.4248 15.7753C38.03 15.4984 38.4574 15.4029 38.6474 15.3075C38.8373 15.2025 38.8468 15.1261 38.8468 13.7227C38.8468 12.8921 38.8088 12.2334 38.7518 12.1952C38.7043 12.1666 38.4099 12.2716 38.0965 12.4339C37.783 12.5866 37.4696 12.7203 37.4031 12.7203C37.3366 12.7203 37.1657 12.7776 37.0327 12.8539C36.7857 12.978 36.2349 13.1594 35.2376 13.4267C34.5632 13.6081 32.7111 13.8659 32.0652 13.8659C31.4099 13.8659 30.1182 13.6272 29.4438 13.379C27.9241 12.8157 26.9078 11.7751 26.3854 10.2572C26.091 9.36933 26.072 7.24039 26.3569 6.37163C27.1453 3.97537 29.1589 2.69609 32.1222 2.69609C34.1168 2.69609 36.3203 3.22117 38.3434 4.19495C38.5144 4.27132 38.6948 4.30951 38.7423 4.27132C38.8088 4.23313 38.8468 3.67942 38.8468 2.79156C38.8468 1.41681 38.8373 1.35953 38.6379 1.22588C38.4194 1.08268 38.1155 1.01585 36.4723 0.748536C36.0259 0.672161 35.5605 0.58624 35.4275 0.557599C34.8672 0.423943 32.0083 0.213912 30.9825 0.223459C30.3746 0.233006 29.3393 0.290287 28.684 0.357115V0.357115ZM11.1791 0.758082C11.1412 0.786723 11.1127 2.84884 11.1127 5.33102C11.1127 10.1331 11.0652 10.7345 10.6378 11.6988C10.3813 12.2811 9.61197 13.0353 8.96611 13.3408C8.38673 13.6177 7.30396 13.8659 6.67709 13.8659C5.49934 13.8659 3.00137 13.3313 1.92809 12.8539C1.76663 12.7776 1.58617 12.7203 1.51968 12.7203C1.46269 12.7203 1.14926 12.5866 0.835824 12.4339C0.512892 12.2716 0.18996 12.1666 0.123474 12.1857C0.0284943 12.2238 0 12.5771 0 13.7227V15.2025L0.322931 15.3361C0.636365 15.4698 0.930804 15.527 2.80191 15.8325C4.40707 16.0903 4.98645 16.1476 6.74358 16.2049C8.61468 16.2717 11.0367 16.1476 11.825 15.9567C13.1737 15.6321 13.7816 15.4411 14.342 15.1834C15.9376 14.4387 16.8494 13.4363 17.4098 11.842C17.6188 11.2501 17.6188 11.1737 17.6188 5.98975V0.738989L14.4275 0.710348C12.6798 0.700801 11.2171 0.719895 11.1791 0.758082V0.758082ZM41.2498 0.758082C41.1548 0.796269 41.1263 2.38105 41.1263 8.23326C41.1263 15.6321 41.1263 15.6702 41.3163 15.7753C41.4588 15.8516 43.7193 15.8707 49.0857 15.8421C57.3774 15.8039 57.1874 15.8135 58.4032 15.2215C59.0206 14.9161 59.9039 14.0759 60.1793 13.5318C60.7872 12.3479 60.6447 10.8873 59.8184 9.83713C59.239 9.09248 58.1752 8.51967 56.7505 8.18553C56.4941 8.12824 56.2851 8.03278 56.3041 7.98504C56.3136 7.93731 56.5226 7.85139 56.76 7.78456C58.6976 7.28812 59.8279 5.68425 59.5619 3.79398C59.334 2.17101 58.1182 1.1495 55.9907 0.786723C55.4873 0.700801 41.4493 0.67216 41.2498 0.758082ZM52.3625 3.13525C53.0083 3.46939 53.4737 4.22359 53.4737 4.9396C53.4737 5.72244 52.8754 6.57211 52.1725 6.78214C51.7831 6.8967 47.4235 6.96353 47.319 6.84897C47.2335 6.77259 47.1766 3.50757 47.2525 3.20207L47.3 2.9825H49.684C51.6881 2.9825 52.106 3.01114 52.3625 3.13525ZM52.7899 9.38843C53.7017 9.79894 54.1386 10.7345 53.9296 11.8133C53.8347 12.2907 53.7492 12.453 53.3882 12.8157C52.7899 13.4172 52.4005 13.484 49.6175 13.484C47.528 13.484 47.395 13.4745 47.3 13.3026C47.1956 13.1021 47.1671 9.77985 47.262 9.39797L47.319 9.18794H49.836C52.182 9.18794 52.372 9.19749 52.7899 9.38843V9.38843Z" fill="#FCFCFC"/>
</svg>
