<svg width="49.77" height="30" viewBox="0 0 34 20" fill="none" xmlns="http://www.w3.org/2000/svg">
<path fill-rule="evenodd" clip-rule="evenodd" d="M16.5895 17.4117C17.6198 16.4718 18.4422 15.3269 19.0041 14.0506C19.566 12.7742 19.855 11.3945 19.8525 9.99991C19.855 8.60533 19.5661 7.22561 19.0042 5.94924C18.4423 4.67287 17.6198 3.52804 16.5895 2.58816C14.8278 0.980004 12.4907 0 9.92614 0C4.44425 0 0 4.47706 0 9.99991C0 15.5226 4.44425 19.9998 9.92614 19.9998C12.4907 19.9998 14.8279 19.0198 16.5895 17.4117Z" fill="#9E9E9E"/>
<path fill-rule="evenodd" clip-rule="evenodd" d="M23.2528 0C20.6883 0 18.3509 0.980004 16.5895 2.58816C16.2303 2.91639 15.8953 3.27023 15.5873 3.64691H17.5909C17.866 3.98312 18.119 4.33683 18.3482 4.70583H14.8306C14.6188 5.04705 14.4277 5.40066 14.2583 5.76475H18.9196C19.0801 6.10936 19.2207 6.46285 19.3408 6.8235H13.838C13.7226 7.17087 13.6264 7.52432 13.5498 7.88224H19.6292C19.778 8.5783 19.8529 9.28812 19.8526 9.99991C19.8526 11.1101 19.6724 12.1782 19.341 13.1761H13.838C13.9577 13.5369 14.098 13.8904 14.2583 14.2351H18.9196C18.7505 14.5992 18.5596 14.9528 18.348 15.294H14.8306C15.0596 15.663 15.3123 16.0167 15.5871 16.3529H17.5909C17.2833 16.7298 16.9486 17.0837 16.5895 17.4118C18.3509 19.02 20.6883 20 23.2528 20C28.7346 20 33.179 15.5228 33.179 10.0001C33.179 4.47706 28.7346 0 23.2528 0Z" fill="#767676"/>
<path fill-rule="evenodd" clip-rule="evenodd" d="M29.7581 12.1673C29.7581 11.9889 29.9016 11.8442 30.0786 11.8442C30.2556 11.8442 30.399 11.9889 30.399 12.1673C30.399 12.3457 30.2556 12.4901 30.0786 12.4901C29.9016 12.4901 29.7581 12.3455 29.7581 12.1673ZM30.0784 12.4124C30.2128 12.4124 30.3219 12.3026 30.3219 12.1671C30.3219 12.0313 30.2128 11.9215 30.0784 11.9215C29.9436 11.9215 29.8349 12.0313 29.8349 12.1671C29.8349 12.3026 29.9438 12.4124 30.0784 12.4124ZM30.0351 12.3088H29.9693V12.0251H30.0885C30.1132 12.0251 30.1387 12.0254 30.1601 12.0396C30.1715 12.0475 30.1807 12.0581 30.1869 12.0704C30.1932 12.0827 30.1964 12.0964 30.1961 12.1102C30.1961 12.1425 30.1777 12.1723 30.1474 12.1836L30.1993 12.3087H30.1266L30.0834 12.1964H30.0353V12.3088V12.1482H30.0717C30.0851 12.1482 30.1 12.1492 30.1116 12.1427C30.1168 12.139 30.121 12.1341 30.1239 12.1284C30.1268 12.1227 30.1283 12.1164 30.1282 12.11C30.1281 12.1043 30.1266 12.0986 30.1238 12.0935C30.121 12.0885 30.1171 12.0842 30.1123 12.0809C30.1009 12.0744 30.0825 12.0758 30.0704 12.0758H30.0355V12.3088H30.0351ZM8.68607 12.4901H7.45069L8.18489 8.59277L6.49445 12.4901H5.36795L5.16206 8.61511L4.42555 12.4901H3.3042L4.26239 7.42034H6.19012L6.2921 10.559L7.65126 7.42034H9.66004L8.68607 12.4901V12.4901ZM22.4925 12.4395C22.1545 12.533 21.8902 12.5733 21.6047 12.5733C20.9727 12.5733 20.6275 12.2539 20.6275 11.6679C20.6275 11.5519 20.6403 11.4285 20.6639 11.298L20.7391 10.8949L20.7969 10.5686L21.3695 7.42017H22.5982L22.4201 8.36701H23.0506L22.8812 9.36936H22.2481L21.9225 11.0896C21.9104 11.1458 21.9034 11.2029 21.9014 11.2604C21.9014 11.4734 22.0293 11.5659 22.3229 11.5659C22.4636 11.5659 22.5727 11.5532 22.6562 11.5275L22.4925 12.4395ZM26.1007 8.40088C25.9972 8.35974 25.9729 8.35974 25.9608 8.35637C25.8954 8.34182 25.8604 8.33331 25.8544 8.33225C25.8134 8.32507 25.7718 8.32163 25.7301 8.32196C25.3245 8.32196 25.0321 8.50392 24.654 8.99144L24.763 8.36665H23.6442L22.8912 12.4899H24.1274C24.5697 9.96825 24.7591 9.52666 25.3522 9.52666C25.3969 9.52666 25.4485 9.53021 25.5084 9.53712L25.6528 9.56674L26.1007 8.40088V8.40088ZM17.5951 9.6696C17.5951 10.1905 17.8865 10.5492 18.5469 10.8188C19.0531 11.0259 19.1313 11.0866 19.1313 11.2739C19.1313 11.5305 18.9082 11.6463 18.4139 11.6463C18.0408 11.6463 17.6941 11.5957 17.2938 11.4831L17.1223 12.4342L17.1777 12.4436L17.4066 12.4858C17.4804 12.4986 17.5891 12.5108 17.7333 12.5218C18.0305 12.5451 18.2605 12.5561 18.4226 12.5561C19.7413 12.5561 20.3505 12.1207 20.3505 11.1802C20.3505 10.6143 20.0959 10.2825 19.4697 10.0326C18.9456 9.82389 18.885 9.7776 18.885 9.58518C18.885 9.36297 19.0928 9.24876 19.4966 9.24876C19.7422 9.24876 20.0771 9.27199 20.3947 9.31065L20.5727 8.35619C20.2493 8.31185 19.7584 8.2755 19.473 8.2755C18.0748 8.27567 17.5909 8.90915 17.5951 9.6696V9.6696ZM12.7022 12.4901H11.6756L11.6995 12.0627C11.3868 12.4011 10.9701 12.5614 10.4036 12.5614C9.73417 12.5614 9.27467 12.1021 9.27467 11.4352C9.27467 10.4308 10.0729 9.84535 11.4448 9.84535C11.5855 9.84535 11.7641 9.85652 11.9481 9.87709C11.9864 9.7416 11.9969 9.68308 11.9969 9.6093C11.9969 9.33637 11.7814 9.23422 11.2045 9.23422C10.8518 9.23422 10.4531 9.27891 10.1779 9.34914L10.0067 9.39294L9.89591 9.41955L10.0672 8.49257C10.6831 8.33367 11.0896 8.27355 11.5463 8.27355C12.608 8.27355 13.1692 8.69243 13.1692 9.48303C13.1692 9.68645 13.1505 9.84091 13.0688 10.2999L12.8106 11.7626L12.7671 12.0251L12.7355 12.2347L12.7144 12.3782L12.7022 12.4901V12.4901ZM11.8009 10.6532C11.7093 10.6418 11.6171 10.6361 11.5248 10.6361C10.8247 10.6361 10.47 10.847 10.47 11.2634C10.47 11.52 10.6431 11.6839 10.9132 11.6839C11.4168 11.6841 11.7797 11.2629 11.8009 10.6532ZM16.755 12.4011C16.3424 12.513 15.9167 12.5693 15.4892 12.5683C14.108 12.5672 13.3882 11.9338 13.3882 10.7211C13.3882 9.30569 14.304 8.26361 15.5472 8.26361C16.5642 8.26361 17.2137 8.84726 17.2137 9.76235C17.2137 10.0661 17.1693 10.3623 17.062 10.7803H14.6056C14.5981 10.8231 14.5942 10.8664 14.5938 10.9098C14.5938 11.3877 14.96 11.6316 15.6775 11.6316C16.1187 11.6316 16.5176 11.5509 16.9604 11.3707L16.755 12.4011ZM16.0971 9.94768C16.1038 9.86184 16.1074 9.79161 16.1074 9.73735C16.1074 9.40252 15.8909 9.20602 15.523 9.20602C15.13 9.20602 14.849 9.46956 14.7349 9.94519L16.0971 9.94768ZM29.941 10.6207C29.756 11.9923 28.8052 12.6006 27.5413 12.6006C26.1437 12.6006 25.5792 11.7465 25.5792 10.7C25.5792 9.23865 26.5352 8.24854 28.0118 8.24854C29.2935 8.24854 29.9739 9.06273 29.9739 10.1094C29.9739 10.3641 29.9736 10.3809 29.941 10.6207ZM28.6687 10.0931C28.6687 9.6618 28.4949 9.25462 27.9884 9.25462C27.3579 9.25462 26.9672 10.0053 26.9672 10.668C26.9672 11.227 27.235 11.6027 27.6766 11.5947C27.9444 11.5947 28.5155 11.2272 28.6284 10.5854C28.6548 10.4357 28.6687 10.2715 28.6687 10.0931V10.0931Z" fill="white"/>
</svg>
