<svg width="84" height="23" viewBox="0 0 84 23" fill="none" xmlns="http://www.w3.org/2000/svg">
<path d="M12.5679 10.3436C12.2081 12.0969 11.374 13.4434 10.08 14.3995C8.79772 15.3395 7.1443 15.8111 5.11942 15.8111C3.2139 15.8111 1.81715 15.3297 0.925649 14.3638C0.307376 13.6776 0 12.8058 0 11.7521C0 11.3162 0.0524614 10.8478 0.157033 10.344L2.3143 0.00105105H5.57221L3.44487 10.2263C3.38402 10.4832 3.35446 10.7463 3.35685 11.0102C3.35332 11.5339 3.4843 11.9632 3.74908 12.2982C4.13497 12.796 4.76134 13.0429 5.63347 13.0429C6.63588 13.0429 7.46189 12.7992 8.10305 12.3077C8.74421 11.8196 9.16284 11.1271 9.35086 10.226L11.4852 0H14.727L12.5679 10.3436ZM26.2509 6.27444H28.8025L26.8037 15.5054H24.257L26.2509 6.27444ZM27.054 2.91141H29.6285L29.1476 5.15203H26.5734L27.054 2.91141ZM31.0612 14.8028C30.3936 14.1684 30.0567 13.3131 30.0535 12.2268C30.0535 12.0412 30.0648 11.8301 30.0898 11.5991C30.1144 11.3648 30.1454 11.1373 30.1894 10.9258C30.4919 9.42636 31.1366 8.23603 32.1291 7.35764C33.1202 6.47609 34.3159 6.03392 35.7162 6.03392C36.8626 6.03392 37.7721 6.35286 38.4379 6.99004C39.1033 7.63106 39.4368 8.4958 39.4368 9.59546C39.4368 9.78381 39.4223 10.0019 39.3977 10.2361C39.3691 10.467 39.3336 10.697 39.2914 10.9258C38.9956 12.4025 38.353 13.5799 37.3601 14.4419C36.3672 15.3101 35.1747 15.7425 33.7846 15.7425C32.6333 15.7428 31.727 15.4305 31.0612 14.8028ZM35.924 12.9749C36.3739 12.4904 36.6957 11.7552 36.8922 10.7763C36.9218 10.6233 36.9478 10.464 36.964 10.3048C36.9802 10.1486 36.9869 10.0023 36.9869 9.86888C36.9869 9.29963 36.8412 8.85745 36.5486 8.54517C36.2577 8.22973 35.844 8.07359 35.3092 8.07359C34.6026 8.07359 34.0265 8.32041 33.5755 8.81509C33.1206 9.30978 32.7981 10.0576 32.5953 11.0529C32.5675 11.2059 32.5446 11.3589 32.5234 11.5084C32.5073 11.6614 32.5023 11.8042 32.5055 11.9345C32.5055 12.5006 32.6513 12.9364 32.9438 13.2452C33.235 13.5544 33.647 13.707 34.1885 13.707C34.8987 13.7066 35.474 13.4626 35.924 12.9749Z" fill="#FCFCFC"/>
<path d="M15.5698 6.27117H17.8711L17.6077 7.60469L17.938 7.22414C18.6841 6.43047 19.59 6.03696 20.6597 6.03696C21.6279 6.03696 22.3261 6.31669 22.7648 6.87929C23.1965 7.4419 23.3144 8.21946 23.1099 9.21794L21.842 15.5085H19.477L20.6216 9.8068C20.7396 9.21794 20.7068 8.77892 20.5252 8.49569C20.3456 8.21281 20.002 8.07312 19.5062 8.07312C18.8978 8.07312 18.3859 8.26148 17.9686 8.63573C17.55 9.01313 17.2736 9.53688 17.1377 10.2035L16.0828 15.5085H13.7129L15.5698 6.27117ZM41.9595 6.27117H44.2629L44.0013 7.60469L44.3277 7.22414C45.0744 6.43047 45.9835 6.03696 47.05 6.03696C48.0183 6.03696 48.7175 6.31669 49.1531 6.87929C49.5823 7.4419 49.7059 8.21946 49.4967 9.21794L48.2338 15.5085H45.8656L47.011 9.8068C47.1285 9.21794 47.0954 8.77892 46.9155 8.49569C46.7289 8.21281 46.392 8.07312 45.8983 8.07312C45.2896 8.07312 44.7797 8.26148 44.3576 8.63573C43.9389 9.01313 43.6608 9.53688 43.5302 10.2035L42.47 15.5085H40.1033L41.9595 6.27117ZM53.3437 0.546387H60.0299C61.315 0.546387 62.3097 0.835917 62.9931 1.40482C63.6734 1.98108 64.0138 2.80696 64.0138 3.88351V3.91607C64.0138 4.12088 64.0005 4.35194 63.9807 4.60226C63.9467 4.85644 63.9031 5.10927 63.8501 5.36022C63.5554 6.78476 62.872 7.92993 61.8157 8.79817C60.7552 9.66326 59.4997 10.0991 58.054 10.0991H54.4683L53.3595 15.5081H50.2551L53.3437 0.546387ZM55.0147 7.49756H57.9881C58.7631 7.49756 59.3782 7.31831 59.8271 6.96402C60.2721 6.60622 60.5665 6.05971 60.7292 5.31821C60.7552 5.18132 60.7718 5.05774 60.7915 4.94396C60.8013 4.83683 60.8144 4.729 60.8144 4.62537C60.8144 4.09497 60.6249 3.71126 60.245 3.4704C59.8658 3.22603 59.2704 3.10945 58.4462 3.10945H55.921L55.0147 7.49756ZM77.9095 17.2943C76.9279 19.3694 75.9927 20.5789 75.4434 21.1415C74.8935 21.6982 73.8041 22.9925 71.1807 22.8948L71.4071 21.3113C73.6147 20.6346 74.8083 17.5867 75.4892 16.237L74.6776 6.29708L76.3853 6.27432H77.818L77.9722 12.5095L80.6572 6.27432H83.3761L77.9095 17.2943ZM70.3078 7.02563L69.228 7.76399C68.0995 6.88594 67.0693 6.34259 65.0807 7.25985C62.372 8.50864 60.1084 18.088 67.5668 14.9329L67.9918 15.4339L70.9261 15.5088L72.8531 6.80472L70.3078 7.02563ZM68.6389 11.7841C68.1678 13.1667 67.1151 14.0804 66.2905 13.8203C65.4662 13.5665 65.1715 12.233 65.6497 10.8473C66.1208 9.46161 67.1805 8.55101 67.9981 8.81113C68.8224 9.06495 69.1199 10.3985 68.6389 11.7841Z" fill="#FCFCFC"/>
</svg>
